<svg width="45" height="45" viewBox="0 0 45 45" fill="none" xmlns="http://www.w3.org/2000/svg">
  <g clip-path="url(#clip0_1320_1299)">
    <path fill-rule="evenodd" clip-rule="evenodd" d="M38.8512 15.3019V27.8816C38.8512 29.577 38.1907 31.2057 37.0099 32.4222L32.0002 37.5833C30.7725 38.8481 29.085 39.5618 27.3223 39.5618H15.1344C13.3718 39.5618 11.6843 38.8481 10.4566 37.5833L9.69974 36.8036C8.51888 35.587 7.8584 33.9583 7.8584 32.2629V20.3534C7.8584 18.658 8.51888 17.0293 9.69974 15.8128L14.6031 10.7612C15.8308 9.49646 17.5183 8.78271 19.281 8.78271H32.3321C35.9325 8.78271 38.8512 11.7015 38.8512 15.3019ZM32.9943 10.6014C35.3722 10.6014 37.2999 12.529 37.2999 14.9069V27.6216C37.2999 29.9994 35.3722 31.9271 32.9943 31.9271H20.2796C17.9018 31.9271 15.9741 29.9995 15.9741 27.6216V14.9069C15.9741 12.529 17.9018 10.6014 20.2796 10.6014H32.9943Z" fill="#FC7D1D" style="--darkreader-inline-fill: #ff872a;" data-darkreader-inline-fill=""></path>
    <path fill-rule="evenodd" clip-rule="evenodd" d="M29.7361 21.1969C29.7361 21.197 29.7361 21.197 29.7361 21.1969L33.8788 17.055C34.3734 16.5606 34.3734 15.7589 33.879 15.2644C33.3846 14.7699 32.5829 14.7698 32.0884 15.2642L27.7521 19.5997C27.401 19.9506 27.2038 20.4267 27.2038 20.9231L27.2037 21.4703C27.2037 21.9667 27.4008 22.4428 27.7518 22.7938L32.0873 27.1301C32.5817 27.6246 33.3834 27.6247 33.8779 27.1303C34.3724 26.6359 34.3725 25.8342 33.8781 25.3397L29.7361 21.1969C29.7361 21.1969 29.7361 21.1969 29.7361 21.1969Z" fill="#FC7D1D" style="--darkreader-inline-fill: #ff872a;" data-darkreader-inline-fill=""></path>
    <path fill-rule="evenodd" clip-rule="evenodd" d="M23.2999 21.1964C23.2999 21.1965 23.2999 21.1965 23.2999 21.1965L19.1575 17.0541C18.6631 16.5596 18.6631 15.7579 19.1575 15.2635C19.652 14.769 20.4537 14.769 20.9481 15.2635L25.2841 19.5994C25.635 19.9504 25.8322 20.4264 25.8322 20.9228V21.4701C25.8322 21.9664 25.635 22.4425 25.2841 22.7935L20.9481 27.1294C20.4537 27.6239 19.652 27.6239 19.1575 27.1294C18.6631 26.6349 18.6631 25.8332 19.1575 25.3388L23.2999 21.1964C23.2999 21.1964 23.2999 21.1964 23.2999 21.1964Z" fill="#FC7D1D" style="--darkreader-inline-fill: #ff872a;" data-darkreader-inline-fill=""></path>
  </g>
</svg>
